<?xml version="1.0" encoding="utf-8"?>
<!-- Generator: Adobe Illustrator 25.4.1, SVG Export Plug-In . SVG Version: 6.00 Build 0)  -->
<svg version="1.1" id="Layer_1" xmlns="http://www.w3.org/2000/svg" xmlns:xlink="http://www.w3.org/1999/xlink" x="0px" y="0px"
	 viewBox="0 0 719.2 446.7" style="enable-background:new 0 0 719.2 446.7;" xml:space="preserve">
<path d="M235.7,257c-1.2,0.7-2.3,1.3-3.9,2.2c-2.4-0.7-5.5-1.8-8.7-2.5c-3.1-0.7-5,1.5-4.6,4.5c0.4,2.6,0.6,5.3,0.9,8.2
	c-2.1-0.8-4.3-3.7-5.4,0.2c-3-0.8-5.7-1.6-8.5-2.1c-3.3-0.6-4.8,1.6-4.3,4.9c0.3,2.3,0.1,4.9-0.5,7.2c-0.5,2.1-2.1,2.5-3.8,0.8
	c-2.7-2.6-5.5-5-9.7-4.8c-3.7,0.1-5.3,1.9-4.5,5.6c0.3,1.2,0.3,2.7-0.1,3.8c-0.5,1.3-1.5,2.4-2.3,3.6c-1-0.7-2.3-1.3-3.1-2.3
	c-2.3-2.9-4.8-5.5-8.9-5.4c-2.9,0-4.9,1.4-6.1,4c-0.3,0.6-0.3,1.7,0,2.2c1.4,2.2,0.2,3.8-1.3,4.8c-2,1.3-3-0.4-3.8-2.1
	c-2.8-5.4-5.2-6.8-10.3-5.9c-3.2,0.6-4.9,2.7-5.2,5.9c-0.1,1.2-1.1,2.4-1.7,3.6c-1-0.9-2.2-1.7-3-2.8c-0.9-1.4-1.3-3.2-2.3-4.6
	c-1.8-2.5-4.2-3.3-7.3-2.6c-3.1,0.7-5.3,1.9-5.8,5.4c-0.1,1-1.4,1.8-2.1,2.7c-0.8-0.8-1.8-1.6-2.5-2.5c-0.4-0.7-0.3-1.7-0.5-2.5
	c-1.5-6.2-5.8-8.4-12.2-5.1c-0.9,0.5-1.4,1.8-2.1,2.7c-0.8,0.9-1.8,1.6-2.8,2.4c-0.7-1.1-1.6-2.1-2-3.3c-0.5-1.6-0.3-3.4-1-5
	c-2.8-6.5-8.2-5.4-12.9-1.2c-0.9,0.8-2.1,1.3-3.2,1.9c-0.5-1.3-1.1-2.5-1.3-3.9c-0.2-1,0.3-2.1,0.1-3.2c-0.7-6.5-5-8.7-10.6-5.5
	c-1,0.6-1.9,1.5-3,1.9c-1,0.4-2.7,0.7-3.1,0.2c-0.7-0.7-0.6-2.2-0.7-3.4c-0.1-2.6,0.5-5.4-0.2-7.7c-1.2-3.7-3.8-4.5-7.5-3.1
	c-1.5,0.6-2.8,1.6-4.4,2c-1,0.3-2.5,0.2-3.1-0.4c-0.6-0.6-0.7-2.1-0.5-3.1c0.3-1.3,1.2-2.5,1.5-3.9c1.3-5.4-2.5-9.4-7.9-8.3
	c-1.1,0.2-2.3,0.8-3.4,0.9c-1.3,0.1-2.6-0.1-3.8-0.2c0.2-1.4,0.2-2.8,0.7-4c0.5-1.6,1.7-3,2-4.6c0.8-4.3-1.8-7.4-6.2-7.4
	c-1.5,0-3,0.6-4.4,0.5c-1.2-0.1-2.8-0.4-3.5-1.2c-0.4-0.5,0.4-2.2,0.8-3.3c0.1-0.4,0.6-0.6,0.9-0.9c1.8-2.5,3.1-5.3,1.8-8.4
	c-1.3-3.2-4.2-3.7-7.2-3.8c-0.3,0-0.7,0.1-1,0c-1.5-0.5-3.1-0.9-4.6-1.4c0.8-1.4,1.5-2.7,2.3-4.1c0.9-1.6,2.1-3,2.6-4.7
	c1.1-3.8-0.3-6.2-4.1-7.3c-1.6-0.5-3.4-0.6-5-1c-2.6-0.7-3.2-2.5-1.5-4.5c0.8-0.9,1.8-1.5,2.7-2.2c4.5-3.5,3.9-9.2-1.4-11.4
	c-1.3-0.5-2.7-0.8-3.9-1.5c-0.9-0.6-2-1.6-2.1-2.4c0-0.8,1.2-1.7,2-2.4c1.6-1.5,3.8-2.5,4.9-4.3c2.1-3.1,0.9-6.6-2.3-8.4
	c-1.6-0.9-3.3-1.6-4.7-2.7c-2.1-1.5-1.7-3.4,0.7-4.3c1.2-0.4,2.5-0.7,3.6-1.2c4.9-2.6,5.2-8.7,0.6-11.8c-1.3-0.9-2.7-1.7-3.8-2.9
	c-1.5-1.5-1.3-2.9,1-3.4c0.8-0.2,1.7-0.3,2.5-0.6c3.1-0.9,6-2.2,6.6-5.8c0.6-3.4-1.2-5.9-3.6-8.1c-1.1-1-2.2-2.1-3.5-3.3
	c3.5-1.1,6.5-1.7,9.2-2.9c4-1.8,5-5.9,2.6-9.7c-0.8-1.3-1.6-2.5-2.4-3.6c0.8-1.4,1.6-2.6,2.5-4.1c0.3,0,0.8-0.1,1.3,0
	c3,0.4,5.6-0.5,7.2-3.1c1.6-2.6,0.9-5-0.5-7.5c-1.5-2.5,0.8-6.2,3.8-6.1c7.1,0.2,9.6-3,7.7-9.8c-0.9-3.5,1.3-5.9,4.9-5.6
	c2.8,0.3,5.7,0.5,7.6-2.1c2-2.8,1.6-5.9,0.1-8.8c-0.8-1.5-1.7-3.2,0.2-4.1c0.9-0.4,2.7,0.3,3.8,0.9c2.6,1.6,6.9,2,9.2,0.5
	c2.6-1.7,3.5-4.7,2.6-8.5c-0.1-0.5-0.4-1.1-0.4-1.5c0.2-1.3,0.5-2.7,0.8-4c1.3,0.6,3,0.8,4,1.8c2.2,2.2,5.5,3.3,8.7,2
	c3.1-1.2,3.9-4,4.3-7c0.1-0.5-0.2-1.1-0.2-1.6c0.3-1.7,0.6-3.3,1-5c1.5,0.8,3.1,1.5,4.5,2.4c1.3,0.9,2.3,2.7,3.7,3.2
	c4.3,1.4,8.3-1.7,8.9-6.6c0.1-1.1-0.2-2.4,0-3.5c0.2-0.9,0.8-2.2,1.5-2.5c0.7-0.3,2.2,0.1,2.8,0.6c1.4,1.2,2.5,2.6,3.6,4.1
	c2.1,2.9,5.7,3.7,8.2,0.9c1.6-1.8,2.2-4.4,3.3-6.7c0.6-1.3,1.4-2.4,2.1-3.7c1.2,0.8,2.6,1.3,3.4,2.4c1.5,1.8,2.5,4,3.9,5.8
	c0.5,0.7,2,1.3,2.6,1c2.1-0.9,4.2-1.9,5.8-3.5c1.5-1.6,2.3-3.8,5.3-3c0.7,0.2,1.7-0.6,2.2-0.9c1.6,2.4,3.1,4.7,4.7,6.8
	c0.4,0.5,1.6,0.9,2.2,0.7c1.6-0.5,3.4-1,4.6-2c1.8-1.7,3-4.1,6.3-2.8c0.5,0.2,1.5-0.8,1.9-1c1.5,2.4,3,4.6,4.5,6.9
	c1.7,2.5,3.6,2.2,5.7,0.6c2.1-1.6,3.8-4.4,7.1-2.1c0.4,0.3,1.7-0.8,3.1-1.5c-0.2,3.8,1,6.8,3.9,9.3c1.8,1.5,3.3,1.5,4.8,0.4
	c1.6-1.1,2.8-2.9,4.4-4.1c1.1-0.9,2.5-1.5,3.8-2.2c0.6,1.5,2,3.2,1.8,4.6c-0.5,4,0.3,7,3.8,9.4c2.3,1.6,4,1.6,5.9-0.2
	c0.9-0.9,1.5-2.2,2.5-2.8c1.2-0.7,2.8-1.5,4.1-1.2c1.7,0.4,2.3,2,1.5,3.9c-0.5,1.3-0.9,2.7-1,4c-0.4,3.9,1.5,6.4,6.2,8.2
	c2.8,1.1,4.1-0.9,5.8-2.8c0.8-0.9,2.9-1.3,4.1-0.9c1.7,0.6,1.7,2.3,0.9,4.1c-0.8,1.9-1.6,4-1.6,6c0,3.5,4.8,7.5,8.2,7
	c1.1-0.2,1.9-1.6,3-2c1.2-0.5,2.6-0.6,3.9-0.8c0.2,1.4,0.9,3,0.6,4.3c-0.5,2.1-2.3,4.1-2.3,6.1c0,1.9,1.2,4.7,2.7,5.5
	c2.2,1.2,4.9,3.2,8,0.9c0.8-0.6,3.1-0.5,3.5,0.1c0.6,1,0.4,2.6,0.2,3.9c-0.1,0.6-1,1.1-1.5,1.7c-2.6,3-3.1,5.9-1.6,8.5
	c1.5,2.4,5.6,4.3,8.7,3.5c2-0.5,3.7-0.8,4.7,1.3c1,2.2-0.8,3.2-2.2,4.4c-3.7,3.1-4.6,6.6-2.8,9.5c1.8,2.8,4.7,3.1,7.6,3.5
	c0.7,0.1,1.6-0.3,2.2,0c0.9,0.5,2.1,1.4,2.3,2.3c0.2,0.9-0.7,2-1.3,2.9c-0.2,0.4-1,0.4-1.4,0.7c-2.6,1.7-4.9,3.7-4.7,7.1
	c0.2,3.3,2.6,5,5.3,6.2c1.3,0.5,2.9,0.3,4,1c1,0.6,2.3,1.9,2.3,2.9c0,0.9-1.5,2.3-2.5,2.5c-3.8,0.9-5.8,2.7-6.1,6.2
	c-0.4,3.4,1.3,6,4.8,7.5c1.3,0.5,2.8,0.8,3.8,1.7c0.8,0.7,1.6,2.3,1.3,3.1c-0.3,0.9-1.9,2-2.8,1.9c-3.6-0.5-6.1,0.3-6.9,4.2
	c-1,4.7-0.2,6.9,4,9.3c0.9,0.5,2.1,0.9,2.7,1.7c0.7,1,1.6,2.6,1.3,3.4c-0.3,0.9-2.2,1.9-3.2,1.7c-3-0.7-5.7-1.4-7.3,2.2
	c-1.8,4-1,7.8,2.3,10.7c1,0.9,2.2,1.5,2.9,2.5c0.6,0.7,1,2,0.8,2.8c-0.3,0.8-1.5,1.5-2.4,1.6c-1.2,0.1-2.5-0.4-3.7-0.8
	c-3.3-0.9-5.9,0.9-6.5,4.2c-0.7,3.8,0,7,3.1,9.5c0.2,0.2,0.5,0.4,0.6,0.7c0.5,1.5,0.9,3,1.4,4.5c-1.7,0.2-3.4,0.4-5.1,0.5
	c-0.6,0-1.1-0.6-1.7-0.8c-3.9-1.4-6.7,0.7-7,4.8c-0.3,3.5,0.8,6.2,2.8,8.9c0.8,1,0.7,2.7,1,4c-1.4,0.3-2.9,0.9-4.3,0.8
	c-1.8-0.2-3.5-0.8-5.2-1.5c-2.9-1.1-5.9,0.8-5.5,4c0.3,3.1,1.1,6.2,2.1,9.2c1.2,3.6,0.7,4.5-2.9,3.9c-2.5-0.4-5-1-7.4-1.7
	c-3.1-0.9-5.7,0.8-5.4,4C234.7,250.7,235.3,253.9,235.7,257z M139.9,43c-8-0.3-17.3,1.2-26.5,3.3c-8.9,2-11.8,9.2-6.5,16.8
	c9,12.9,17.8,25.9,27,38.7c6.2,8.7,15.5,9.9,23.4,2.6c7.2-6.7,14.6-13.2,21.9-19.7c4.7-4.2,9.5-8.3,14.1-12.6
	c6.7-6.2,5.9-12.8-2.2-17.1C175.5,46.8,159,42.7,139.9,43z M153.4,255c1.9-0.2,3.1-0.2,4.4-0.4c17.6-2.6,33.4-9.5,47.6-20.2
	c7.5-5.7,14.7-11.8,20.2-19.5c4-5.6,2.2-11.5-4.2-14.1c-1.2-0.5-2.4-0.9-3.6-1.3c-13.8-4.7-27.5-9.5-41.3-14
	c-4-1.3-8.3-1.8-12.5-2.3c-3.3-0.4-8.6,3.9-9.2,6.9c-0.6,3.2-1.2,6.5-1.9,9.7c-3.1,14.2-5.7,28.5-9.4,42.5
	C141.8,248.8,146.8,256,153.4,255z M35.6,142.4c-0.9,10.7,4.4,15,14.6,12.1c0.5-0.1,1-0.3,1.5-0.5c13.9-4.4,27.9-8.8,41.8-13.3
	c9.8-3.1,13.8-11.5,9.7-21c-6.3-14.9-13-29.5-19.2-44.4c-2.4-5.7-12.5-8.3-16.7-3.2c-1.7,2.1-3.8,3.8-5.5,5.8
	C46.1,96.5,37.9,118.3,35.6,142.4z M101.7,175.9c-16.1,1.7-33.5,3.5-50.9,5.5c-5.6,0.6-7.7,4.2-6.3,10.3c0.3,1.5,1,3,1.7,4.5
	c7.6,15,18.2,27.6,31.5,37.9c7.9,6.1,16.3,11.4,25.6,15c7.9,3,13.8-1,14-9.3c0-3.3,0-6.6,0-9.9c0.1-12.6-0.2-25.2,0.3-37.8
	C118,183.4,111.6,175.9,101.7,175.9z M248.7,150.3c-1.3-8.5-2.5-19.2-4.6-29.7c-2.3-11.9-8.1-22.5-15-32.3
	c-4.6-6.5-11.8-6.1-15.6,0.8c-0.5,0.9-1.2,1.8-1.8,2.6c-4,5.4-8,10.8-12,16.2c-3.4,4.7-2.5,9.2,2.3,12.2c6.2,3.8,10.2,9.1,10.8,16.5
	c0.4,5.2-1.1,9.9-4,14.2c-3.8,5.8-2.8,9.7,3.2,13.2c6.6,3.9,13.3,7.7,19.9,11.6c7,4.1,12.8,1.7,14.4-6.2
	C247.3,163.9,247.7,158.2,248.7,150.3z M140.2,130.3c-11.7-0.7-18,7.8-18.2,18.6c-0.2,10.8,8.5,19.8,18.9,19.9
	c10.9,0.1,19.3-8.6,19.3-20.1C160.3,138.1,151,129.5,140.2,130.3z M167.8,111.3c0.3,0.1,0.5,0.3,0.8,0.4c0,3.4,0.9,4.8,4,6.2
	c3.4,1.4,6.4,0.4,9.3-3.6c3.7-5.1,7.3-10.3,10.9-15.5c1.6-2.2,2.3-4.3-0.1-6.5c-2.5-2.2-4.7-2.4-7.4-0.1c-4.6,3.9-9.2,7.7-13.4,11.9
	C170,106,169.1,108.9,167.8,111.3z M187.3,163.2c-3.5,0-6.3,2.4-6.9,5.2c-0.6,3,1.5,7.2,4.3,8.2c6.6,2.3,13.2,4.4,19.8,6.6
	c3.4,1.1,5.6,0.5,6.5-2c1.2-3.1-0.5-4.8-2.9-6.3c-5.8-3.4-11.6-6.9-17.4-10.3C189.5,163.9,188.1,163.5,187.3,163.2z M115.1,112.6
	c2.1-1.2,3.9-1.8,5.2-3.1c2.8-2.6,2.7-6-0.1-10.1c-3.1-4.5-6.3-8.9-9.5-13.2c-0.9-1.2-1.8-2.8-3-3.2c-1.6-0.6-4.1-1-5.2-0.2
	c-1.1,0.8-1.4,3.3-1.3,5c0,1.4,1,2.8,1.6,4.1c2.7,5.9,5.4,11.8,8.3,17.6C111.9,110.8,113.6,111.5,115.1,112.6z M74.4,167.7
	c5.3-0.4,11.1-0.8,16.8-1.4c3-0.3,5.5-1.7,6.2-5.1c1.1-5.4-3.3-9.7-8.9-8.1c-6.6,1.8-13,4.1-19.5,6.2c-2.4,0.8-3.2,2.3-2.7,4.7
	c0.5,2.4,1.6,4.2,4.5,3.8C71.8,167.6,72.9,167.7,74.4,167.7z M128.2,209.8c0.2,0,0.4,0,0.7,0c0,3.7,0,7.5,0,11.2
	c0,2.3,0.9,4,3.3,4.3c2.3,0.3,3.9-0.8,4.5-3.1c1.6-6.5,3.4-13,4.8-19.6c0.8-3.6-0.9-6.8-4-8.7c-4.1-2.4-9.2,0.2-9.3,5
	C128.2,202.5,128.2,206.2,128.2,209.8z M183.4,138.1c-0.6,6,6.1,11.1,13.4,8.2c4.9-2,7.5-5,7-9.4c-0.4-3.9-4.2-7.4-9.1-7.4
	C186.7,129.4,183.3,132.4,183.4,138.1z M240.7,195.4c2,2,3.3,3.3,4.7,4.7c1-1,3.1-2.7,2.9-3c-0.9-1.7-2.4-3.1-3.9-4.3
	C244.1,192.6,242.5,194.1,240.7,195.4z M88.5,51.9c0-0.5,0.1-0.9,0.1-1.4c-1.3-0.9-2.6-2.5-4-2.6c-1-0.1-3,2-2.9,2.9
	c0.1,1.3,1.7,3.2,2.9,3.3C85.8,54.3,87.2,52.7,88.5,51.9z M221.9,64.5c-2.1-1.5-3.3-2.9-4.8-3.2c-0.7-0.1-2.7,2.3-2.5,3.1
	c0.5,1.4,2,2.8,3.4,3.4C218.6,68.1,220.1,66.1,221.9,64.5z M30.9,168.1c-0.5,0-0.9,0.1-1.4,0.1c-0.6,1.1-2,2.5-1.7,3.2
	c0.6,1.4,2.1,2.4,3.2,3.6c1-1.1,2.8-2.3,2.7-3.2C33.5,170.5,31.9,169.3,30.9,168.1z M127.6,258.2c-1.4,1.7-3,3-2.8,3.5
	c0.7,1.5,2.1,2.6,3.2,3.9c1.1-1,3.1-2.1,3-2.8C130.7,261.3,129.1,260.1,127.6,258.2z"/>
<path d="M639.2,390c-1.8,1-3.6,2-6,3.4c-3.7-1.1-8.6-2.9-13.5-4c-4.8-1.1-7.9,2.3-7.2,7.1c0.6,4.1,0.9,8.2,1.3,12.8
	c-3.2-1.3-6.8-5.8-8.4,0.3c-4.7-1.2-8.9-2.5-13.2-3.2c-5.1-0.9-7.4,2.4-6.7,7.6c0.5,3.6,0.1,7.6-0.8,11.2c-0.8,3.3-3.2,3.9-6,1.2
	c-4.2-4.1-8.6-7.7-15.2-7.5c-5.8,0.2-8.2,3-7,8.7c0.4,1.9,0.5,4.1-0.1,5.9c-0.7,2-2.4,3.7-3.6,5.6c-1.6-1.2-3.6-2-4.8-3.6
	c-3.6-4.6-7.5-8.5-13.9-8.5c-4.6,0-7.6,2.3-9.4,6.2c-0.5,1-0.5,2.6,0.1,3.5c2.1,3.4,0.4,6-2,7.5c-3.1,2-4.6-0.7-6-3.2
	c-4.3-8.5-8-10.5-16-9.1c-5.1,0.9-7.6,4.1-8,9.2c-0.2,1.9-1.7,3.7-2.6,5.5c-1.6-1.4-3.5-2.7-4.6-4.4c-1.5-2.2-2.1-4.9-3.5-7.1
	c-2.7-4-6.6-5.2-11.4-4.1c-4.8,1.1-8.3,3-9.1,8.5c-0.2,1.5-2.1,2.8-3.3,4.2c-1.3-1.3-2.8-2.4-3.8-3.9c-0.7-1-0.5-2.6-0.8-3.9
	c-2.3-9.7-9-13.1-19-7.9c-1.4,0.7-2.1,2.9-3.3,4.1c-1.3,1.4-2.8,2.5-4.3,3.7c-1.1-1.7-2.5-3.2-3.1-5.1c-0.8-2.5-0.5-5.4-1.5-7.7
	c-4.3-10.1-12.8-8.4-20.1-1.8c-1.4,1.3-3.3,2-5,2.9c-0.7-2-1.7-4-2.1-6c-0.3-1.6,0.4-3.3,0.2-4.9c-1.1-10.1-7.7-13.5-16.5-8.6
	c-1.6,0.9-2.9,2.3-4.6,2.9c-1.5,0.6-4.2,1.1-4.9,0.4c-1-1.1-1-3.5-1.1-5.3c-0.2-4,0.8-8.4-0.4-12c-1.9-5.7-6-7-11.7-4.8
	c-2.3,0.9-4.4,2.4-6.8,3.1c-1.5,0.4-3.9,0.4-4.9-0.6c-1-0.9-1-3.3-0.7-4.9c0.4-2.1,1.8-3.9,2.3-6c2.1-8.4-3.9-14.7-12.4-12.9
	c-1.8,0.4-3.5,1.2-5.3,1.3c-2,0.2-4-0.2-6-0.3c0.3-2.1,0.4-4.3,1-6.3c0.8-2.5,2.6-4.7,3.1-7.2c1.2-6.7-2.9-11.5-9.7-11.5
	c-2.3,0-4.6,0.9-6.9,0.7c-1.9-0.1-4.4-0.6-5.5-1.9c-0.7-0.8,0.7-3.4,1.3-5.2c0.2-0.6,1-0.9,1.4-1.4c2.9-3.9,4.8-8.2,2.8-13.1
	c-2-4.9-6.5-5.7-11.2-5.9c-0.5,0-1,0.1-1.5,0c-2.4-0.7-4.8-1.5-7.2-2.2c1.2-2.1,2.3-4.3,3.5-6.4c1.4-2.4,3.3-4.7,4.1-7.3
	c1.8-5.9-0.5-9.7-6.4-11.4c-2.5-0.7-5.3-0.9-7.8-1.5c-4-1-5-3.9-2.3-7c1.2-1.4,2.8-2.4,4.2-3.5c7.1-5.5,6-14.3-2.1-17.8
	c-2-0.8-4.2-1.3-6-2.4c-1.4-0.9-3.2-2.5-3.2-3.8c0-1.2,1.9-2.6,3.2-3.8c2.6-2.3,5.9-4,7.7-6.7c3.3-4.8,1.5-10.2-3.6-13.2
	c-2.4-1.4-5.1-2.5-7.3-4.2c-3.2-2.4-2.7-5.2,1.1-6.6c1.9-0.7,3.9-1,5.6-1.9c7.6-4,8.1-13.5,1-18.4c-2-1.4-4.3-2.7-6-4.4
	c-2.4-2.4-2-4.5,1.5-5.4c1.3-0.3,2.6-0.5,3.9-0.9c4.8-1.4,9.3-3.4,10.3-9c1-5.4-1.8-9.2-5.7-12.6c-1.8-1.5-3.4-3.2-5.4-5.2
	c5.5-1.7,10.1-2.7,14.3-4.6c6.2-2.8,7.7-9.2,4.1-15.1c-1.2-2-2.6-3.8-3.7-5.6c1.3-2.2,2.5-4.1,3.9-6.4c0.4,0,1.2-0.2,2-0.1
	c4.7,0.6,8.7-0.7,11.3-4.8c2.6-4,1.4-7.9-0.8-11.7c-2.3-4,1.3-9.7,5.9-9.5c11,0.3,14.9-4.6,12-15.2c-1.5-5.4,2-9.2,7.6-8.7
	c4.3,0.4,8.9,0.8,11.9-3.3c3.1-4.4,2.5-9.2,0.2-13.8c-1.2-2.3-2.7-5,0.3-6.4c1.4-0.7,4.2,0.4,5.9,1.4c4.1,2.5,10.7,3,14.3,0.7
	c4.1-2.6,5.5-7.4,4.1-13.3c-0.2-0.8-0.7-1.6-0.6-2.4c0.3-2.1,0.8-4.2,1.2-6.2c2.1,0.9,4.7,1.3,6.2,2.8c3.4,3.4,8.6,5.1,13.5,3.1
	c4.8-1.9,6.1-6.2,6.6-10.9c0.1-0.8-0.4-1.7-0.2-2.5c0.4-2.6,1-5.2,1.5-7.8c2.4,1.2,4.9,2.3,7.1,3.8c2.1,1.4,3.5,4.2,5.7,5
	c6.7,2.2,13-2.7,13.9-10.3c0.2-1.8-0.4-3.7,0-5.5c0.3-1.4,1.2-3.4,2.4-3.9c1.2-0.5,3.4,0.1,4.4,1c2.1,1.8,3.9,4.1,5.6,6.4
	c3.3,4.6,8.8,5.7,12.8,1.5c2.5-2.7,3.5-6.9,5.2-10.4c1-2,2.2-3.8,3.3-5.7c1.8,1.2,4,2.1,5.3,3.7c2.3,2.8,3.9,6.2,6.1,9
	c0.8,1,3.1,2,4,1.6c3.2-1.4,6.6-3,9-5.5c2.4-2.5,3.6-6,8.2-4.7c1.1,0.3,2.6-1,3.5-1.3c2.5,3.7,4.8,7.3,7.3,10.6
	c0.6,0.8,2.5,1.4,3.4,1.2c2.5-0.7,5.3-1.5,7.1-3.2c2.9-2.7,4.7-6.4,9.8-4.4c0.8,0.3,2.4-1.2,2.9-1.5c2.4,3.7,4.7,7.2,7,10.7
	c2.6,3.9,5.6,3.4,8.9,0.9c3.2-2.5,5.9-6.9,11.1-3.3c0.7,0.4,2.7-1.2,4.9-2.3c-0.3,5.9,1.6,10.6,6.1,14.4c2.8,2.4,5.2,2.3,7.5,0.7
	c2.6-1.7,4.4-4.5,6.9-6.4c1.8-1.4,3.9-2.3,5.9-3.4c1,2.4,3.1,4.9,2.8,7.2c-0.8,6.3,0.5,10.9,5.9,14.7c3.6,2.6,6.3,2.5,9.2-0.4
	c1.4-1.4,2.4-3.4,4-4.4c1.9-1.1,4.4-2.3,6.3-1.8c2.7,0.6,3.5,3.1,2.3,6c-0.8,2-1.4,4.1-1.6,6.3c-0.6,6,2.3,10,9.7,12.8
	c4.3,1.7,6.5-1.4,9-4.3c1.2-1.4,4.6-2,6.4-1.4c2.7,1,2.6,3.6,1.4,6.3c-1.3,3-2.5,6.2-2.5,9.4c0,5.4,7.5,11.7,12.8,10.8
	c1.7-0.3,3-2.4,4.7-3.2c1.9-0.8,4.1-0.9,6.1-1.3c0.4,2.2,1.4,4.6,1,6.7c-0.8,3.3-3.6,6.4-3.6,9.5c0,3,1.8,7.3,4.2,8.6
	c3.4,1.9,7.7,5,12.4,1.3c1.2-0.9,4.9-0.8,5.5,0.1c1,1.5,0.6,4.1,0.4,6.1c-0.1,0.9-1.5,1.7-2.3,2.6c-4,4.7-4.9,9.2-2.5,13.2
	c2.3,3.8,8.8,6.7,13.6,5.4c3.1-0.8,5.8-1.2,7.3,2c1.6,3.4-1.2,5-3.4,6.9c-5.7,4.8-7.2,10.2-4.3,14.8c2.8,4.3,7.3,4.8,11.8,5.4
	c1.1,0.1,2.6-0.5,3.4,0c1.5,0.8,3.3,2.1,3.6,3.5c0.3,1.3-1.1,3.1-2,4.5c-0.4,0.6-1.5,0.6-2.2,1.1c-4.1,2.6-7.6,5.8-7.3,11.1
	c0.2,5.2,4.1,7.8,8.3,9.6c2,0.8,4.4,0.5,6.2,1.5c1.6,0.9,3.6,2.9,3.6,4.5c0,1.4-2.3,3.5-3.9,3.9c-5.9,1.4-9,4.2-9.6,9.6
	c-0.6,5.2,2,9.3,7.5,11.6c2,0.8,4.3,1.3,5.9,2.7c1.3,1.1,2.5,3.6,2,4.9c-0.4,1.4-3,3.1-4.4,2.9c-5.6-0.7-9.5,0.5-10.8,6.6
	c-1.6,7.3-0.3,10.7,6.3,14.5c1.4,0.8,3.2,1.4,4.2,2.7c1.2,1.5,2.6,4,2.1,5.4c-0.5,1.4-3.5,3-5,2.6c-4.7-1-8.9-2.1-11.4,3.5
	c-2.8,6.3-1.5,12.1,3.7,16.8c1.5,1.3,3.4,2.3,4.5,3.9c0.9,1.1,1.6,3.2,1.2,4.3c-0.5,1.2-2.4,2.3-3.8,2.4c-1.9,0.1-3.9-0.7-5.8-1.2
	c-5.1-1.4-9.2,1.4-10.2,6.6c-1.1,5.9-0.1,10.9,4.8,14.8c0.4,0.3,0.9,0.7,1,1.1c0.8,2.3,1.4,4.7,2.1,7c-2.7,0.3-5.3,0.7-8,0.7
	c-0.9,0-1.8-0.9-2.7-1.2c-6.1-2.2-10.5,1.2-11,7.6c-0.4,5.4,1.2,9.7,4.3,13.9c1.2,1.6,1.1,4.2,1.5,6.3c-2.2,0.5-4.5,1.4-6.7,1.2
	c-2.7-0.2-5.5-1.3-8.1-2.3c-4.6-1.7-9.2,1.3-8.6,6.2c0.5,4.8,1.7,9.7,3.2,14.3c1.8,5.6,1.1,7-4.6,6.1c-3.9-0.6-7.8-1.6-11.6-2.7
	c-4.8-1.5-8.9,1.3-8.4,6.3C637.6,380.2,638.5,385.2,639.2,390z M489.9,56.5c-12.5-0.4-26.9,1.9-41.3,5.2
	c-13.8,3.2-18.4,14.4-10.2,26.1c14.1,20.1,27.8,40.4,42,60.3c9.7,13.5,24.2,15.4,36.4,4.1c11.2-10.4,22.8-20.5,34.2-30.7
	c7.3-6.6,14.8-13,22-19.6c10.4-9.7,9.1-20-3.5-26.7C545.4,62.4,519.6,56,489.9,56.5z M510.9,387c2.9-0.2,4.9-0.3,6.9-0.6
	c27.4-4.1,52.1-14.8,74.2-31.5c11.7-8.8,22.9-18.4,31.5-30.4c6.3-8.7,3.4-17.9-6.5-22c-1.8-0.8-3.7-1.4-5.6-2
	c-21.4-7.3-42.8-14.8-64.3-21.8c-6.2-2-12.9-2.8-19.5-3.6c-5.1-0.6-13.4,6-14.4,10.7c-1,5-1.9,10.1-3,15.1
	c-4.8,22.1-8.9,44.4-14.6,66.3C492.9,377.3,500.6,388.5,510.9,387z M327.3,211.5c-1.3,16.6,6.8,23.4,22.7,18.8
	c0.8-0.2,1.6-0.5,2.4-0.7c21.7-6.9,43.5-13.8,65.2-20.8c15.2-4.9,21.4-17.9,15.2-32.7c-9.8-23.2-49.4-82.2-55.9-74.2
	c-2.6,3.2-5.9,5.9-8.6,9.1C343.6,140,330.9,173.9,327.3,211.5z M430.4,263.7c-25.1,2.7-52.2,5.4-79.4,8.5c-8.8,1-11.9,6.6-9.8,16
	c0.5,2.4,1.6,4.7,2.7,7c11.9,23.4,28.4,43,49.1,59c12.3,9.5,25.4,17.8,39.9,23.4c12.3,4.7,21.6-1.5,21.8-14.5c0.1-5.2,0-10.3,0-15.5
	c0.1-19.7-0.2-39.3,0.5-59C455.7,275.4,445.8,263.7,430.4,263.7z M659.5,223.8c-2-13.2-4-29.9-7.2-46.3c-3.7-18.6-12.6-35-23.5-50.4
	c-7.1-10.2-18.3-9.5-24.3,1.2c-0.8,1.4-1.9,2.7-2.9,4.1c-6.2,8.4-12.5,16.8-18.7,25.3c-5.3,7.3-3.9,14.4,3.6,19
	c9.6,5.9,15.8,14.2,16.8,25.7c0.7,8.1-1.8,15.4-6.2,22.2c-5.9,9-4.4,15.1,4.9,20.6c10.4,6,20.7,12.1,31.1,18.1
	c10.9,6.4,20,2.7,22.5-9.6C657.3,245,657.9,236.2,659.5,223.8z M490.3,192.5c-18.2-1.1-28,12.1-28.3,28.9
	c-0.3,16.8,13.3,30.9,29.5,31c17,0.1,30.1-13.4,30.1-31.3C521.6,204.8,507.1,191.4,490.3,192.5z M533.3,163c0.4,0.2,0.8,0.4,1.2,0.7
	c0,5.4,1.4,7.5,6.3,9.6c5.3,2.3,9.9,0.6,14.4-5.6c5.8-7.9,11.3-16.1,17-24.1c2.4-3.4,3.6-6.8-0.1-10.2c-3.8-3.5-7.4-3.8-11.6-0.2
	c-7.1,6-14.4,11.9-20.9,18.5C536.7,154.7,535.4,159.2,533.3,163z M563.8,243.8c-5.5,0-9.9,3.7-10.7,8.1c-0.9,4.7,2.4,11.3,6.7,12.8
	c10.2,3.5,20.5,6.9,30.8,10.2c5.3,1.7,8.7,0.7,10.2-3.1c1.9-4.8-0.8-7.5-4.6-9.7c-9-5.4-18-10.7-27.1-16
	C567.2,244.9,564.9,244.3,563.8,243.8z M451.3,165.1c3.3-1.8,6.1-2.9,8.2-4.8c4.3-4.1,4.3-9.4-0.1-15.8c-4.8-7-9.8-13.8-14.8-20.6
	c-1.4-1.9-2.7-4.3-4.6-5c-2.5-1-6.4-1.6-8.1-0.3c-1.7,1.3-2.1,5.1-2.1,7.9c0,2.2,1.6,4.3,2.5,6.4c4.3,9.2,8.4,18.4,13,27.4
	C446.2,162.2,448.9,163.3,451.3,165.1z M387.7,250.9c8.3-0.7,17.2-1.2,26.1-2.2c4.7-0.5,8.6-2.6,9.7-7.9c1.7-8.5-5.1-15-13.9-12.7
	c-10.3,2.7-20.2,6.4-30.4,9.6c-3.7,1.2-4.9,3.6-4.2,7.3c0.8,3.8,2.4,6.6,7,6C383.7,250.8,385.4,250.9,387.7,250.9z M471.7,316.5
	c0.3,0,0.7,0,1,0c0,5.8,0,11.6,0,17.4c0,3.6,1.3,6.3,5.1,6.8c3.6,0.5,6.1-1.2,7-4.9c2.5-10.2,5.2-20.3,7.5-30.5
	c1.3-5.6-1.4-10.6-6.2-13.5c-6.4-3.8-14.3,0.4-14.5,7.7C471.5,305.2,471.7,310.8,471.7,316.5z M557.7,204.7
	c-1,9.3,9.5,17.3,20.9,12.8c7.7-3.1,11.6-7.8,10.9-14.6c-0.6-6.1-6.6-11.5-14.2-11.6C562.7,191.1,557.5,195.8,557.7,204.7z
	 M647,294.1c3.1,3.1,5.2,5.2,7.3,7.3c1.6-1.6,4.8-4.1,4.5-4.7c-1.5-2.6-3.7-4.9-6.1-6.7C652.3,289.7,649.8,292.1,647,294.1z
	 M409.8,70.3c0-0.7,0.1-1.4,0.1-2.1c-2.1-1.4-4.1-3.8-6.2-4c-1.5-0.1-4.6,3-4.5,4.5c0.2,2,2.6,4.9,4.5,5.2
	C405.5,74.1,407.7,71.6,409.8,70.3z M617.7,90c-3.3-2.3-5.2-4.6-7.5-4.9c-1.1-0.2-4.2,3.6-3.8,4.8c0.7,2.2,3.1,4.4,5.3,5.4
	C612.5,95.6,614.8,92.6,617.7,90z M319.9,251.5c-0.7,0.1-1.4,0.1-2.1,0.2c-1,1.7-3.1,3.9-2.7,5c0.9,2.2,3.3,3.8,5,5.6
	c1.5-1.7,4.4-3.6,4.2-5C324,255.2,321.5,253.5,319.9,251.5z M470.7,391.9c-2.2,2.7-4.7,4.7-4.4,5.5c1.1,2.3,3.2,4.1,4.9,6.1
	c1.7-1.5,4.9-3.3,4.6-4.4C475.4,396.8,473.1,394.9,470.7,391.9z"/>
</svg>
